<?xml version="1.0" standalone="no"?>
<!DOCTYPE svg PUBLIC "-//W3C//DTD SVG 20010904//EN"
 "http://www.w3.org/TR/2001/REC-SVG-20010904/DTD/svg10.dtd">
<svg version="1.0" xmlns="http://www.w3.org/2000/svg"
 width="2207.000000pt" height="2207.000000pt" viewBox="0 0 2207.000000 2207.000000"
 preserveAspectRatio="xMidYMid meet">
<metadata>
Created by potrace 1.14, written by Peter Selinger 2001-2017
</metadata>
<g transform="translate(0.000000,2207.000000) scale(0.100000,-0.100000)"
fill="#000000" stroke="none">
<path d="M18209 22047 c-74 -63 -201 -318 -299 -602 -21 -63 -37 -115 -33
-115 3 0 1 -6 -4 -12 -6 -7 -27 -83 -48 -168 -21 -85 -62 -245 -92 -355 -71
-263 -114 -424 -118 -446 -2 -9 -13 -52 -24 -95 -23 -88 -60 -246 -67 -284 -3
-14 -16 -77 -29 -140 -13 -63 -27 -128 -30 -145 -2 -16 -7 -41 -10 -55 -3 -14
-7 -38 -10 -55 -3 -16 -7 -41 -10 -55 -3 -14 -7 -41 -11 -60 -3 -19 -7 -39 -8
-45 -2 -5 -6 -32 -10 -60 -4 -27 -12 -66 -16 -85 -5 -19 -11 -57 -15 -85 -3
-27 -8 -57 -10 -65 -2 -8 -7 -33 -10 -55 -3 -22 -8 -56 -11 -75 -3 -19 -7 -46
-10 -60 -6 -37 -32 -218 -40 -275 -3 -27 -8 -59 -10 -69 -3 -17 -9 -59 -30
-221 -3 -22 -7 -51 -9 -65 -2 -14 -6 -50 -10 -80 -3 -30 -10 -89 -15 -130 -6
-41 -13 -100 -16 -130 -3 -30 -7 -65 -9 -78 -4 -27 -18 -151 -18 -169 0 -12
-26 -18 -122 -28 -27 -3 -63 -8 -80 -10 -16 -2 -59 -6 -95 -10 -36 -3 -76 -8
-90 -10 -14 -2 -47 -7 -75 -10 -86 -9 -137 -15 -215 -25 -41 -5 -100 -12 -130
-15 -30 -4 -66 -8 -80 -10 -14 -2 -54 -6 -90 -10 -36 -3 -76 -8 -90 -10 -14
-2 -50 -7 -80 -10 -30 -3 -71 -8 -90 -10 -19 -2 -59 -7 -87 -10 -29 -3 -77 -7
-105 -10 -29 -3 -69 -8 -88 -10 -107 -12 -164 -17 -405 -30 -60 -3 -130 -7
-155 -10 -25 -2 -85 -7 -135 -10 -94 -6 -169 -12 -245 -20 -25 -2 -79 -7 -120
-11 -41 -3 -91 -8 -110 -10 -19 -1 -60 -5 -90 -8 -56 -6 -128 -14 -190 -21
-19 -2 -60 -7 -90 -11 -30 -3 -64 -7 -75 -9 -11 -1 -44 -6 -74 -10 -30 -3 -63
-9 -75 -11 -12 -2 -46 -6 -76 -9 -30 -4 -62 -8 -70 -10 -8 -2 -31 -7 -50 -10
-19 -3 -48 -8 -63 -11 -16 -3 -38 -7 -50 -9 -24 -3 -77 -12 -117 -20 -54 -11
-76 -15 -105 -21 -16 -3 -50 -10 -75 -15 -25 -6 -53 -12 -63 -14 -10 -2 -27
-7 -37 -10 -10 -3 -27 -7 -37 -9 -174 -34 -552 -151 -749 -231 -195 -80 -408
-199 -529 -295 -111 -88 -473 -442 -660 -645 -55 -60 -107 -116 -115 -125 -99
-105 -312 -360 -443 -530 -53 -69 -100 -129 -105 -135 -4 -5 -45 -62 -90 -125
-45 -63 -86 -119 -90 -125 -4 -5 -51 -75 -103 -155 -225 -342 -417 -694 -554
-1015 -7 -16 -22 -50 -33 -75 -45 -104 -153 -396 -201 -545 -43 -137 -130
-455 -145 -535 -3 -14 -9 -50 -15 -80 -6 -30 -13 -68 -16 -85 -3 -16 -10 -59
-16 -95 -5 -36 -11 -76 -14 -90 -2 -14 -6 -50 -10 -80 -3 -30 -8 -71 -10 -90
-6 -49 -15 -146 -20 -205 -3 -45 -11 -138 -20 -250 -2 -22 -7 -85 -10 -140 -3
-55 -8 -125 -10 -155 -17 -238 -23 -451 -25 -837 -1 -172 -5 -313 -8 -314 -4
0 -14 -2 -22 -3 -8 -2 -55 -7 -105 -11 -49 -4 -92 -8 -95 -10 -3 -1 -36 -5
-75 -9 -38 -4 -126 -15 -195 -26 -69 -11 -138 -22 -155 -25 -16 -3 -88 -16
-160 -31 -71 -14 -141 -28 -155 -30 -152 -28 -606 -147 -845 -223 -336 -107
-738 -259 -988 -375 -42 -20 -80 -36 -83 -36 -11 0 -442 -218 -512 -259 -39
-22 -73 -41 -75 -41 -7 0 -193 -114 -313 -192 -268 -174 -797 -601 -1239
-1001 -93 -84 -532 -520 -620 -617 -416 -453 -707 -866 -919 -1305 -154 -317
-237 -535 -364 -960 -38 -125 -257 -931 -277 -1017 -2 -10 -15 -59 -29 -110
-25 -93 -52 -199 -121 -463 -20 -77 -52 -201 -72 -275 -19 -74 -36 -142 -38
-150 -2 -8 -13 -53 -25 -100 -12 -47 -24 -96 -27 -109 -2 -14 -21 -97 -42
-185 -21 -89 -42 -179 -46 -201 -5 -22 -9 -44 -11 -50 -3 -11 -5 -19 -28 -130
-14 -66 -57 -297 -70 -375 -3 -19 -8 -46 -11 -60 -3 -13 -7 -42 -11 -65 -3
-22 -9 -44 -14 -49 -14 -14 -502 -146 -635 -172 -11 -2 -31 -6 -45 -9 -40 -9
-179 -33 -290 -50 -26 -4 -89 -10 -224 -20 -44 -3 -83 -8 -88 -11 -27 -17 19
-104 74 -142 78 -52 232 -102 363 -117 28 -3 64 -7 80 -10 115 -17 280 -27
502 -28 l171 -1 2 -230 c1 -127 3 -249 5 -271 7 -98 17 -202 21 -220 2 -10 6
-37 9 -60 14 -101 53 -241 86 -305 35 -68 99 -120 148 -120 25 0 28 13 36 140
3 52 7 106 10 120 2 14 6 45 9 70 6 51 9 63 36 210 27 141 23 125 68 300 79
306 121 444 138 457 10 7 32 13 48 14 17 0 38 2 46 4 8 2 32 6 54 10 21 4 48
9 60 11 11 2 37 7 56 10 19 3 42 7 50 9 8 2 31 7 50 10 35 5 318 61 356 70 10
2 60 14 109 25 50 12 99 23 110 24 11 2 79 18 150 36 72 17 143 34 158 37 16
2 46 11 68 18 21 8 39 12 39 10 0 -2 15 1 33 6 17 6 43 12 57 15 14 3 113 28
220 56 107 27 206 52 220 54 14 3 34 8 45 11 11 4 25 8 30 9 6 1 116 29 245
63 129 33 348 89 485 125 287 74 621 165 745 202 170 52 486 166 605 218 342
150 594 292 865 484 74 53 141 102 150 109 8 6 65 51 125 99 61 48 112 90 115
93 3 3 37 33 75 66 84 72 67 57 201 180 141 131 371 361 509 509 61 66 117
126 125 135 15 16 217 246 269 306 48 55 207 249 266 325 32 41 61 77 64 80
15 13 225 293 276 367 387 563 766 1407 1001 2233 76 264 170 669 199 850 3
19 10 58 15 85 5 28 12 75 16 105 3 30 7 57 9 60 1 3 6 30 9 61 4 31 8 65 10
75 2 11 7 48 10 84 4 36 9 79 11 95 2 17 6 73 10 125 4 52 9 106 11 120 1 14
4 54 5 88 1 36 7 66 13 68 6 2 214 6 461 9 248 3 486 7 530 10 44 2 130 7 190
10 61 3 135 8 165 10 30 2 96 7 145 11 50 3 108 7 130 9 22 2 74 6 115 10 41
3 91 8 110 10 19 2 71 7 115 10 44 3 91 8 105 10 14 2 52 6 84 10 68 6 122 14
151 20 11 2 43 7 70 10 28 4 82 14 120 22 39 8 84 17 100 19 175 28 847 237
1010 314 11 5 85 37 165 71 277 117 599 286 890 469 118 74 443 293 460 310 3
3 41 32 85 64 172 127 590 465 625 505 3 3 25 24 50 45 216 187 643 612 792
788 39 45 198 274 198 283 0 2 18 43 41 92 95 203 124 277 195 488 36 108 97
317 109 375 2 8 15 62 29 120 29 123 94 444 102 509 3 25 7 47 9 51 2 3 6 26
10 50 3 25 10 72 15 105 5 33 12 83 15 110 3 28 8 61 10 75 3 14 7 48 11 75 3
28 8 64 10 80 3 17 7 55 10 85 3 30 6 66 9 80 2 14 6 59 10 100 4 41 8 86 10
100 2 14 7 59 10 100 3 41 7 95 10 120 10 101 16 169 20 235 2 39 7 97 9 130
3 33 8 103 11 155 12 169 23 296 31 355 4 22 7 54 9 70 2 17 6 53 9 80 3 28 8
74 11 103 2 29 7 63 9 75 3 12 8 49 11 82 3 33 10 89 15 125 5 36 11 90 15
120 3 30 8 66 10 80 2 14 7 57 11 95 3 39 8 72 9 75 2 3 6 32 10 65 3 33 8 69
10 80 2 11 4 32 4 46 1 14 7 26 14 26 20 1 141 13 168 18 13 2 49 6 79 9 30 3
64 8 75 10 11 2 49 7 85 11 36 4 72 8 80 10 8 1 40 6 70 10 30 4 62 9 70 10 8
2 44 6 80 10 36 4 67 8 70 10 3 2 28 6 55 9 28 4 61 9 75 11 52 7 116 17 131
20 9 2 40 6 70 10 30 4 57 9 60 10 3 2 28 7 55 10 27 3 63 9 79 12 17 3 39 7
50 9 19 2 261 47 318 58 15 4 39 8 55 11 22 5 44 9 92 20 8 2 69 15 190 41
126 28 442 107 615 154 61 16 119 32 130 34 11 2 45 11 75 19 30 8 125 32 210
52 376 90 794 268 885 377 26 30 26 32 8 50 -33 33 -81 39 -273 33 -102 -3
-198 -7 -215 -9 -27 -4 -218 -14 -420 -21 -165 -6 -595 -6 -720 1 -214 11
-319 9 -475 -11 -19 -3 -64 -7 -100 -10 -155 -11 -198 -15 -240 -20 -25 -2
-76 -7 -115 -10 -78 -6 -162 -14 -215 -20 -19 -2 -80 -7 -135 -11 -55 -3 -109
-8 -119 -10 -11 -2 -60 -6 -110 -9 -50 -3 -107 -8 -126 -10 -19 -2 -78 -7
-130 -10 -52 -4 -111 -8 -130 -10 -19 -2 -75 -6 -125 -10 -49 -3 -118 -8 -153
-10 l-64 -4 7 107 c3 59 8 134 11 167 3 33 7 91 9 130 6 94 15 220 20 275 2
25 7 83 10 130 4 47 8 92 10 100 2 8 7 65 10 125 4 61 8 117 10 125 2 8 6 56
9 105 4 50 9 101 11 115 2 14 6 61 10 105 3 44 8 96 10 115 2 19 7 67 11 105
3 39 8 84 9 100 2 17 6 68 10 114 4 46 8 92 10 101 2 10 6 59 10 110 3 50 8
99 10 108 17 89 21 232 11 417 -8 131 -8 477 -1 620 2 50 7 164 10 255 4 91 8
183 11 205 18 188 26 466 14 520 -8 34 -31 65 -49 65 -3 0 -18 -10 -32 -23z
m-1135 -5310 c-15 -151 -20 -182 -30 -182 -15 0 -474 188 -470 193 5 4 41 8
141 17 44 3 91 8 105 10 14 2 61 7 105 10 43 3 80 7 81 8 2 1 19 3 38 4 l36 3
-6 -63z m-1938 -175 c5 -5 41 -21 79 -36 39 -16 84 -34 100 -41 17 -7 93 -38
170 -70 77 -31 154 -63 170 -70 17 -7 91 -38 165 -68 74 -30 225 -92 335 -137
815 -336 790 -326 789 -346 0 -18 -16 -163 -19 -174 -1 -3 -5 -34 -9 -70 -4
-36 -9 -76 -11 -90 -2 -14 -6 -50 -10 -80 -7 -64 -14 -120 -20 -170 -8 -62
-18 -184 -17 -204 2 -30 -9 -12 -33 59 -65 184 -227 352 -406 419 -183 69
-360 64 -545 -15 l-72 -31 -38 25 c-22 13 -106 68 -189 122 -82 54 -193 126
-245 160 -52 34 -160 104 -240 156 -80 52 -207 135 -283 184 -75 50 -214 141
-308 203 -94 61 -174 112 -177 112 -3 0 -13 7 -23 16 -10 9 -32 24 -50 33 -35
19 -48 37 -27 38 19 0 179 14 212 18 15 2 65 7 110 10 44 3 92 8 106 10 14 2
63 7 110 10 47 4 93 9 102 10 9 2 61 7 115 10 54 4 100 9 102 11 8 7 47 4 57
-4z m-1868 -381 c46 -33 303 -201 307 -201 2 0 84 -53 182 -118 98 -65 271
-178 385 -252 377 -245 423 -275 1058 -689 96 -62 196 -128 222 -145 28 -18
48 -39 48 -50 0 -10 5 -37 11 -60 73 -269 270 -461 536 -520 79 -18 216 -18
290 -1 42 10 63 10 77 3 73 -39 306 -201 306 -213 0 -8 -6 -34 -14 -57 -8 -24
-40 -126 -71 -228 -108 -349 -200 -572 -305 -740 -76 -123 -183 -270 -195
-270 -5 0 -28 17 -50 38 -22 21 -89 82 -150 137 -60 55 -115 104 -121 110 -6
5 -29 26 -50 44 -39 35 -203 182 -234 211 -9 8 -36 33 -61 55 -24 22 -91 83
-149 135 -57 52 -110 100 -116 105 -134 120 -171 153 -188 170 -12 11 -62 56
-111 100 -50 44 -94 85 -100 91 -5 5 -50 46 -100 90 -49 43 -94 84 -100 90 -5
6 -125 114 -265 240 -140 126 -260 233 -266 239 -43 40 -201 183 -218 198 -12
10 -37 33 -56 50 -19 18 -78 70 -129 117 -52 47 -102 92 -111 100 -9 8 -59 53
-110 100 -52 47 -117 106 -145 131 -27 25 -65 59 -84 75 -18 16 -45 40 -60 54
-42 39 -212 193 -235 213 -12 10 -37 33 -56 50 -19 18 -85 77 -145 132 -61 54
-111 102 -113 106 -8 20 302 222 448 292 60 29 193 84 208 87 2 0 15 -9 30
-19z m-1127 -995 c31 -28 96 -87 144 -131 49 -44 117 -105 150 -135 33 -30
101 -91 150 -135 104 -94 201 -182 230 -210 12 -11 39 -35 61 -54 21 -19 79
-70 128 -115 49 -45 94 -85 100 -91 7 -5 36 -32 67 -60 30 -27 95 -86 144
-130 49 -44 99 -89 111 -100 12 -11 54 -49 94 -85 40 -36 87 -78 105 -95 18
-16 45 -42 61 -56 35 -30 233 -209 359 -323 49 -44 112 -101 139 -126 28 -25
60 -54 72 -65 11 -11 41 -38 65 -59 24 -21 80 -72 124 -112 44 -40 89 -81 101
-91 12 -10 63 -56 114 -103 51 -47 102 -93 114 -103 26 -23 72 -65 151 -137
79 -72 214 -193 241 -217 12 -10 63 -57 115 -104 52 -47 114 -103 138 -125 25
-21 71 -64 104 -95 l60 -56 -89 -78 c-160 -139 -568 -431 -668 -476 -14 -7
-26 -16 -26 -21 0 -4 -4 -8 -9 -8 -7 0 -106 -54 -201 -110 -8 -5 -37 -21 -64
-36 l-50 -26 -45 48 c-54 58 -121 132 -211 234 -36 40 -80 89 -98 109 -19 19
-59 64 -90 100 -31 35 -62 69 -67 75 -6 6 -96 106 -200 221 -161 179 -288 320
-370 411 -11 12 -51 57 -90 100 -38 43 -133 148 -210 234 -231 257 -260 291
-256 303 71 220 46 447 -68 625 -92 142 -229 244 -401 297 -67 21 -253 28
-329 13 -45 -9 -56 -9 -65 4 -9 12 -72 83 -171 192 -55 60 -197 218 -220 245
-17 19 -34 39 -40 45 -39 44 -40 39 41 163 90 138 245 349 330 448 33 39 69
80 79 92 l19 22 35 -31 c20 -17 61 -54 92 -82z m-921 -1397 c21 -22 64 -70
178 -198 12 -15 36 -40 52 -56 29 -30 30 -33 34 -155 4 -129 21 -202 68 -295
91 -179 266 -319 454 -364 76 -18 84 -19 138 -20 46 -1 53 -4 100 -54 28 -29
69 -73 91 -98 63 -72 185 -208 245 -274 30 -34 91 -101 135 -150 44 -49 87
-96 95 -105 8 -9 44 -49 80 -90 36 -41 70 -79 76 -85 6 -5 35 -37 64 -70 29
-33 84 -94 121 -135 37 -41 77 -85 87 -98 11 -12 53 -59 94 -105 41 -45 119
-131 173 -192 54 -60 101 -112 104 -115 3 -3 38 -41 78 -86 l72 -80 -82 -51
c-71 -44 -223 -121 -252 -128 -5 -1 -23 -8 -40 -14 -129 -54 -552 -171 -704
-196 -18 -3 -36 -7 -40 -9 -3 -2 -28 -7 -55 -10 -27 -4 -52 -8 -56 -9 -9 -2
-32 29 -142 188 -41 61 -105 153 -141 205 -63 91 -162 235 -341 495 -45 66
-174 253 -286 415 -112 162 -217 315 -234 340 -16 25 -32 47 -35 50 -4 3 -10
13 -16 22 -5 10 -28 43 -50 75 -60 86 -274 396 -285 413 -46 67 -174 253 -213
309 l-49 70 43 97 c24 54 70 143 103 198 63 105 75 128 149 286 24 52 54 116
66 142 l22 46 37 -41 c20 -23 48 -54 62 -68z m-660 -1741 c30 -45 62 -92 70
-104 8 -13 35 -51 59 -86 24 -35 62 -90 85 -123 22 -33 92 -134 155 -225 63
-91 146 -212 186 -270 40 -58 100 -145 134 -195 34 -49 87 -126 117 -170 102
-149 206 -300 260 -377 30 -42 51 -79 47 -81 -5 -3 -39 -8 -78 -12 -38 -4 -86
-9 -105 -11 -19 -3 -57 -7 -85 -9 -27 -3 -90 -9 -140 -15 -49 -5 -121 -12
-160 -15 -38 -3 -88 -8 -110 -10 -22 -3 -76 -7 -120 -10 -44 -3 -107 -8 -140
-10 -84 -7 -191 -14 -323 -21 -108 -6 -114 -5 -109 13 3 10 8 74 12 143 3 69
8 139 10 155 2 17 7 73 10 125 3 52 8 111 10 130 2 19 7 70 10 112 3 42 8 92
10 110 2 18 6 67 10 108 4 41 8 86 10 100 2 14 7 54 10 90 3 36 8 76 10 90 2
14 7 50 10 80 3 30 10 83 16 117 5 34 11 83 14 110 3 26 7 57 9 69 2 12 7 45
11 75 4 30 13 84 20 121 7 37 10 70 7 73 -3 3 -1 5 4 5 5 0 34 -37 64 -82z
m-1444 -3007 c-3 -25 -8 -80 -11 -121 -3 -41 -8 -91 -10 -110 -2 -19 -7 -64
-10 -100 -6 -67 -7 -76 -25 -220 -6 -47 -13 -103 -16 -125 -2 -22 -7 -51 -9
-65 -3 -14 -7 -41 -10 -60 -3 -19 -7 -35 -8 -36 -1 -1 -117 45 -257 102 -140
58 -304 125 -365 150 -60 25 -119 49 -130 53 -11 5 -36 16 -55 24 -19 8 -163
68 -320 132 -157 64 -291 120 -298 124 -21 12 257 102 453 147 156 36 377 77
535 98 228 32 291 39 425 51 44 4 82 9 83 10 2 2 10 1 18 -2 11 -4 14 -17 10
-52z m-2164 -766 c194 -80 398 -164 453 -187 55 -23 118 -49 140 -58 22 -10
126 -52 230 -95 105 -42 204 -83 220 -90 17 -7 212 -88 435 -180 223 -91 408
-169 413 -174 4 -4 -1 -32 -12 -62 -11 -30 -51 -144 -89 -254 -65 -185 -200
-549 -237 -638 -24 -57 -43 -35 -44 50 -3 185 -72 353 -196 479 -118 120 -220
173 -400 210 -33 6 -177 6 -220 -1 -53 -9 -181 -53 -218 -75 l-30 -18 -76 47
c-42 26 -87 54 -100 62 -14 8 -30 17 -35 22 -28 20 -167 107 -171 107 -3 0
-42 24 -88 54 -76 49 -411 259 -562 351 -291 178 -415 259 -408 266 40 40 592
326 635 329 3 0 165 -65 360 -145z m-1462 -798 c80 -49 179 -111 220 -137 41
-26 179 -112 305 -190 127 -78 246 -153 265 -165 99 -65 232 -145 240 -145 4
0 10 -3 12 -8 3 -7 145 -99 178 -114 27 -13 314 -197 337 -215 12 -10 24 -34
26 -53 24 -166 147 -352 298 -451 133 -87 251 -119 414 -114 61 2 131 10 157
19 l47 15 68 -41 c105 -62 102 -56 53 -135 -42 -66 -186 -263 -230 -313 -12
-14 -70 -77 -130 -140 -151 -161 -164 -176 -307 -357 -70 -89 -132 -162 -137
-162 -5 -1 -16 7 -25 17 -9 9 -34 32 -56 51 -22 18 -62 54 -90 80 -27 25 -133
120 -235 211 -102 90 -187 167 -190 170 -3 3 -45 41 -95 85 -49 44 -95 85
-101 90 -15 14 -152 136 -176 157 -23 20 -158 141 -198 178 -15 14 -86 77
-157 140 l-130 115 3 125 c2 97 -1 141 -16 197 -47 178 -144 316 -296 418
-149 100 -347 137 -527 100 -93 -19 -81 -25 -211 97 l-89 83 291 233 c159 128
296 239 302 247 7 8 17 12 24 8 6 -4 76 -47 156 -96z m-1306 -943 c28 -24 109
-96 233 -208 43 -38 43 -39 42 -105 -3 -179 70 -358 199 -489 77 -79 120 -109
215 -152 115 -52 272 -74 390 -55 42 7 45 5 165 -104 42 -38 88 -79 101 -90
27 -23 163 -145 200 -180 14 -12 57 -51 96 -85 38 -33 92 -81 120 -106 27 -25
69 -63 94 -85 24 -22 52 -47 61 -55 9 -8 54 -49 101 -90 46 -41 89 -79 95 -85
13 -12 150 -134 174 -155 10 -8 42 -37 72 -65 30 -27 85 -77 123 -110 37 -33
86 -77 109 -97 l41 -38 -160 -158 c-88 -86 -182 -178 -210 -203 -152 -138
-375 -312 -549 -429 l-79 -53 -36 39 c-49 54 -263 297 -431 491 -19 22 -60 69
-92 104 -79 90 -990 1132 -1052 1203 -28 32 -56 64 -62 70 -5 6 -63 72 -128
146 -121 138 -193 220 -281 319 -27 31 -56 64 -65 75 -8 10 -31 37 -52 60
l-36 41 45 65 c63 88 219 284 312 389 85 97 202 221 209 221 2 0 18 -12 36
-26z m-910 -1464 c17 -19 92 -105 166 -190 74 -85 139 -160 145 -166 9 -10 90
-102 132 -150 16 -19 52 -60 193 -219 25 -28 63 -72 85 -98 22 -26 56 -65 75
-86 19 -21 53 -59 75 -86 22 -27 45 -53 51 -59 16 -17 104 -116 165 -186 76
-87 427 -489 499 -570 156 -177 240 -275 240 -281 0 -4 -8 -9 -17 -12 -23 -7
-119 -42 -158 -58 -87 -34 -314 -107 -567 -179 -236 -68 -443 -129 -532 -156
-13 -5 -6 12 28 58 127 180 165 417 99 623 -93 291 -353 483 -660 487 l-91 2
-155 307 -155 307 13 44 c8 23 39 120 69 213 31 94 58 177 60 185 3 11 101
256 144 359 4 10 13 5 35 -20 16 -19 44 -50 61 -69z m-703 -1734 c0 -17 3 -25
6 -17 4 10 11 4 23 -19 15 -29 15 -38 2 -94 -28 -118 -18 -283 26 -406 47
-134 163 -278 283 -350 52 -31 129 -69 129 -63 0 14 33 -24 51 -58 23 -47 23
-49 1 -49 -10 0 -22 -3 -26 -7 -4 -5 -11 -8 -14 -8 -4 -1 -38 -11 -77 -23 -84
-26 -464 -141 -485 -147 -8 -2 -98 -29 -200 -59 -102 -31 -188 -56 -192 -56
-4 0 -3 12 3 28 6 15 35 108 66 207 61 201 124 406 154 505 11 36 22 72 24 80
1 8 47 147 101 309 86 258 99 291 111 275 7 -10 13 -32 14 -48z"/>
</g>
</svg>
