<?xml version="1.0" encoding="utf-8"?>
<!-- Generator: Adobe Illustrator 23.0.3, SVG Export Plug-In . SVG Version: 6.00 Build 0)  -->
<svg version="1.1" id="Calque_1" xmlns="http://www.w3.org/2000/svg" xmlns:xlink="http://www.w3.org/1999/xlink" x="0px" y="0px"
	 viewBox="0 0 384 512" style="enable-background:new 0 0 384 512;" xml:space="preserve">
<style type="text/css">
	.st0{font-family:'MyriadPro-Regular';}
	.st1{font-size:92px;}
	.st2{fill:none;stroke:#000000;stroke-width:6;stroke-miterlimit:10;}
	.st3{fill:none;stroke:#000000;stroke-width:34;stroke-miterlimit:10;}
</style>
<g>
	<text transform="matrix(1 0 0 1 74.7019 158.6586)" class="st0 st1">CV</text>
	<g>
		<rect x="221.5" y="68.3" class="st2" width="97.5" height="96.5"/>
		<circle class="st2" cx="269.5" cy="109.1" r="18.9"/>
		<path class="st2" d="M269.7,129.1c-17.1,0-30.9,13.9-30.9,31.1c0,1.4,0.1,2.7,0.3,4.1h61.2c0.2-1.3,0.3-2.7,0.3-4.1
			C300.6,143,286.7,129.1,269.7,129.1z"/>
	</g>
	<path class="st3" d="M347.9,490.8H44.8c-6.6,0-12-5.4-12-12V34c0-6.6,5.4-12,12-12h303.1c6.6,0,12,5.4,12,12v444.8
		C359.9,485.4,354.5,490.8,347.9,490.8z"/>
	<g>
		<g>
			<path d="M176.5,206.7H82.1c-4.2,0-7.7-3.4-7.7-7.7v0c0-4.2,3.4-7.7,7.7-7.7h94.5c4.2,0,7.7,3.4,7.7,7.7v0
				C184.2,203.2,180.7,206.7,176.5,206.7z"/>
			<path d="M176.5,286.4H82.1c-4.2,0-7.7-3.4-7.7-7.7l0,0c0-4.2,3.4-7.7,7.7-7.7h94.5c4.2,0,7.7,3.4,7.7,7.7l0,0
				C184.2,283,180.7,286.4,176.5,286.4z"/>
			<path d="M176.5,259.8H82.1c-4.2,0-7.7-3.4-7.7-7.7v0c0-4.2,3.4-7.7,7.7-7.7h94.5c4.2,0,7.7,3.4,7.7,7.7v0
				C184.2,256.4,180.7,259.8,176.5,259.8z"/>
			<path d="M176.5,233.2H82.1c-4.2,0-7.7-3.4-7.7-7.7v0c0-4.2,3.4-7.7,7.7-7.7h94.5c4.2,0,7.7,3.4,7.7,7.7v0
				C184.2,229.8,180.7,233.2,176.5,233.2z"/>
		</g>
		<g>
			<path d="M303.6,319.9H81.7c-4.2,0-7.7-3.4-7.7-7.7l0,0c0-4.2,3.4-7.7,7.7-7.7h221.9c4.2,0,7.7,3.4,7.7,7.7l0,0
				C311.2,316.4,307.8,319.9,303.6,319.9z"/>
			<path d="M303.6,344.2H81.7c-4.2,0-7.7-3.4-7.7-7.7v0c0-4.2,3.4-7.7,7.7-7.7h221.9c4.2,0,7.7,3.4,7.7,7.7v0
				C311.2,340.8,307.8,344.2,303.6,344.2z"/>
			<path d="M303.6,368.6H81.7c-4.2,0-7.7-3.4-7.7-7.7l0,0c0-4.2,3.4-7.7,7.7-7.7h221.9c4.2,0,7.7,3.4,7.7,7.7l0,0
				C311.2,365.1,307.8,368.6,303.6,368.6z"/>
			<path d="M303.6,393H81.7c-4.2,0-7.7-3.4-7.7-7.7v0c0-4.2,3.4-7.7,7.7-7.7h221.9c4.2,0,7.7,3.4,7.7,7.7v0
				C311.2,389.5,307.8,393,303.6,393z"/>
			<path d="M303.6,417.3H81.7c-4.2,0-7.7-3.4-7.7-7.7l0,0c0-4.2,3.4-7.7,7.7-7.7h221.9c4.2,0,7.7,3.4,7.7,7.7l0,0
				C311.2,413.9,307.8,417.3,303.6,417.3z"/>
		</g>
		<path d="M302.8,206.1h-94.5c-4.2,0-7.7-3.4-7.7-7.7v0c0-4.2,3.4-7.7,7.7-7.7h94.5c4.2,0,7.7,3.4,7.7,7.7v0
			C310.4,202.7,307,206.1,302.8,206.1z"/>
		<path d="M302.8,285.9h-94.5c-4.2,0-7.7-3.4-7.7-7.7l0,0c0-4.2,3.4-7.7,7.7-7.7h94.5c4.2,0,7.7,3.4,7.7,7.7l0,0
			C310.4,282.4,307,285.9,302.8,285.9z"/>
		<path d="M302.8,259.3h-94.5c-4.2,0-7.7-3.4-7.7-7.7v0c0-4.2,3.4-7.7,7.7-7.7h94.5c4.2,0,7.7,3.4,7.7,7.7v0
			C310.4,255.9,307,259.3,302.8,259.3z"/>
		<path d="M302.8,232.7h-94.5c-4.2,0-7.7-3.4-7.7-7.7v0c0-4.2,3.4-7.7,7.7-7.7h94.5c4.2,0,7.7,3.4,7.7,7.7v0
			C310.4,229.3,307,232.7,302.8,232.7z"/>
	</g>
</g>
</svg>
