<?xml version="1.0" encoding="utf-8"?>
<!-- Generator: Adobe Illustrator 23.0.3, SVG Export Plug-In . SVG Version: 6.00 Build 0)  -->
<svg version="1.1" id="Calque_1" xmlns="http://www.w3.org/2000/svg" xmlns:xlink="http://www.w3.org/1999/xlink" x="0px" y="0px"
	 viewBox="0 0 512 512" style="enable-background:new 0 0 512 512;" xml:space="preserve">
<style type="text/css">
	.st0{fill:#77C043;}
</style>
<path class="st0" d="M294.8,188.2h-45.9V342h47.5c67.6,0,83.1-51.3,83.1-76.9C379.4,223.4,352.9,188.2,294.8,188.2z M256,8
	C119,8,8,119,8,256s111,248,248,248s248-111,248-248S393,8,256,8z M175.2,368.8h-29.8V161.3h29.8V368.8z M160.3,137.6
	c-10.8,0-19.6-8.8-19.6-19.6s8.8-19.6,19.6-19.6s19.6,8.8,19.6,19.6v0C179.8,128.8,171.1,137.6,160.3,137.6L160.3,137.6z M300,369
	h-81V161.3h80.6c76.7,0,110.4,54.8,110.4,103.9C410,318.4,368.4,369,300,369z"/>
</svg>
