<?xml version="1.0" encoding="utf-8"?>
<!-- Generator: Adobe Illustrator 23.0.3, SVG Export Plug-In . SVG Version: 6.00 Build 0)  -->
<svg version="1.1" id="Calque_1" xmlns="http://www.w3.org/2000/svg" xmlns:xlink="http://www.w3.org/1999/xlink" x="0px" y="0px"
	 viewBox="0 0 448 512" style="enable-background:new 0 0 448 512;" xml:space="preserve">
<style type="text/css">
	.st0{fill:#FFFFFF;}
	.st1{fill:#231F20;}
</style>
<g>
	<rect x="8" y="34.9" class="st0" width="434" height="434"/>
	<g>
		<path class="st1" d="M187.2,365.7v-8.1c-19.8-2.7-25.8-0.4-25.8-23.9v-46.4c6.7,0.6,12.5,0.6,21.4,0.6c16.9,30.3,33,53,42.2,63.6
			c16.8,20.2,43.4,17.2,50,14.2h0v-7.3c-10,0-20-6.9-27.2-14.7c-12.2-13.3-28.6-34.7-42.2-58.9c22.5-5.3,39.2-26.4,39.2-47.5
			c0-31.2-24.2-45.6-55.9-45.6c-17.8,0-45.1,1.6-70.9,0.6v8.1c15.6,2.9,22,1.3,22,23.9v109.4c0,22.6-6.5,21-22,23.9v8.1
			c7.5-0.2,20.5-0.8,33.6-0.8C164.1,364.9,180.3,365.4,187.2,365.7z M161.4,204.9c6.4-0.6,15-0.6,22.5-0.6
			c23.3,0,37.2,12.2,37.2,34.5c0,21.9-15,36.6-39.7,36.6c-9.4,0-13.6-0.3-20-0.8V204.9z"/>
		<path class="st1" d="M297.9,230.7c38.7,0,34-29.4,34-49.9h-30.4v10.7h17.9c0,15.9-7.4,26.8-21.5,26.8c-11.3,0-17.9-9.9-17.9-23.3
			v-26.8c0-12.4,11.8-19.7,19.7-19.7c14.2,0,19.7,12.5,19.7,12.5l10.7-7.2c0,0-5.2-17.9-30.4-17.9s-34,18.2-34,30.4v32.2
			C265.7,215,274.6,230.7,297.9,230.7z"/>
	</g>
</g>
</svg>
