<?xml version="1.0" encoding="utf-8"?>
<!-- Generator: Adobe Illustrator 23.0.3, SVG Export Plug-In . SVG Version: 6.00 Build 0)  -->
<svg version="1.1" id="Calque_1" xmlns="http://www.w3.org/2000/svg" xmlns:xlink="http://www.w3.org/1999/xlink" x="0px" y="0px"
	 viewBox="0 0 448 512" style="enable-background:new 0 0 448 512;" xml:space="preserve">
<style type="text/css">
	.st0{fill:#231F20;}
</style>
<g>
	<g>
		<path class="st0" d="M149.7,462.1v-15.1c-36.8-5-48-0.7-48-44.4v-86.3c12.5,1.1,23.2,1.1,39.8,1.1c31.4,56.3,61.4,98.5,78.5,118.2
			c31.2,37.6,80.7,32,93,26.4l0,0v-13.6c-18.6,0-37.2-12.8-50.6-27.3c-22.7-24.7-53.2-64.5-78.5-109.5c41.8-9.9,72.9-49.1,72.9-88.3
			c0-58-45-84.8-103.9-84.8c-33.1,0-83.8,3-131.8,1.1v15.1c29,5.4,40.9,2.4,40.9,44.4v203.4c0,42-12.1,39-40.9,44.4v15.1
			c13.9-0.4,38.1-1.5,62.5-1.5C106.7,460.6,136.8,461.6,149.7,462.1z M101.7,163.2c11.9-1.1,27.9-1.1,41.8-1.1
			c43.3,0,69.2,22.7,69.2,64.1c0,40.7-27.9,68-73.8,68c-17.5,0-25.3-0.6-37.2-1.5V163.2z"/>
		<path class="st0" d="M355.5,211.1c71.9,0,63.2-54.7,63.2-92.8h-56.5v19.9h33.3c0,29.6-13.8,49.8-40,49.8
			c-21,0-33.3-18.4-33.3-43.3V94.9c0-23.1,21.9-36.6,36.6-36.6c26.4,0,36.6,23.2,36.6,23.2l19.9-13.4c0,0-9.7-33.3-56.5-33.3
			s-63.2,33.8-63.2,56.5v59.9C295.6,182,312.1,211.1,355.5,211.1z"/>
	</g>
</g>
</svg>
